<?xml version="1.0" encoding="UTF-8" standalone="no"?>
<!DOCTYPE svg PUBLIC "-//W3C//DTD SVG 1.1//EN" "http://www.w3.org/Graphics/SVG/1.1/DTD/svg11.dtd">
<svg width="100%" height="100%" viewBox="0 0 411 137" version="1.1" xmlns="http://www.w3.org/2000/svg" xmlns:xlink="http://www.w3.org/1999/xlink" xml:space="preserve" xmlns:serif="http://www.serif.com/" style="fill-rule:evenodd;clip-rule:evenodd;stroke-linejoin:round;stroke-miterlimit:2;">
    <path d="M141.792,50.968L158.816,50.968L158.816,61L128.796,61L128.796,7.648L141.792,7.648L141.792,50.968ZM171.551,14.184C169.271,14.184 167.396,13.525 165.927,12.208C164.508,10.84 163.799,9.168 163.799,7.192C163.799,5.165 164.508,3.493 165.927,2.176C167.396,0.808 169.271,0.124 171.551,0.124C173.78,0.124 175.604,0.808 177.023,2.176C178.492,3.493 179.227,5.165 179.227,7.192C179.227,9.168 178.492,10.84 177.023,12.208C175.604,13.525 173.78,14.184 171.551,14.184ZM178.011,18.592L178.011,61L165.015,61L165.015,18.592L178.011,18.592ZM200.425,24.596C201.641,22.62 203.389,21.024 205.669,19.808C207.949,18.592 210.558,17.984 213.497,17.984C216.993,17.984 220.159,18.871 222.997,20.644C225.834,22.417 228.063,24.951 229.685,28.244C231.357,31.537 232.193,35.363 232.193,39.72C232.193,44.077 231.357,47.928 229.685,51.272C228.063,54.565 225.834,57.124 222.997,58.948C220.159,60.721 216.993,61.608 213.497,61.608C210.507,61.608 207.898,61.025 205.669,59.86C203.439,58.644 201.691,57.048 200.425,55.072L200.425,61L187.429,61L187.429,4.76L200.425,4.76L200.425,24.596ZM218.969,39.72C218.969,36.477 218.057,33.944 216.233,32.12C214.459,30.245 212.255,29.308 209.621,29.308C207.037,29.308 204.833,30.245 203.009,32.12C201.235,33.995 200.349,36.553 200.349,39.796C200.349,43.039 201.235,45.597 203.009,47.472C204.833,49.347 207.037,50.284 209.621,50.284C212.205,50.284 214.409,49.347 216.233,47.472C218.057,45.547 218.969,42.963 218.969,39.72ZM252.007,25.66C253.527,23.329 255.427,21.505 257.707,20.188C259.987,18.82 262.52,18.136 265.307,18.136L265.307,31.892L261.735,31.892C258.492,31.892 256.06,32.601 254.439,34.02C252.817,35.388 252.007,37.82 252.007,41.316L252.007,61L239.011,61L239.011,18.592L252.007,18.592L252.007,25.66ZM268.935,39.72C268.935,35.363 269.745,31.537 271.367,28.244C273.039,24.951 275.293,22.417 278.131,20.644C280.968,18.871 284.135,17.984 287.631,17.984C290.62,17.984 293.229,18.592 295.459,19.808C297.739,21.024 299.487,22.62 300.703,24.596L300.703,18.592L313.699,18.592L313.699,61L300.703,61L300.703,54.996C299.436,56.972 297.663,58.568 295.383,59.784C293.153,61 290.544,61.608 287.555,61.608C284.109,61.608 280.968,60.721 278.131,58.948C275.293,57.124 273.039,54.565 271.367,51.272C269.745,47.928 268.935,44.077 268.935,39.72ZM300.703,39.796C300.703,36.553 299.791,33.995 297.967,32.12C296.193,30.245 294.015,29.308 291.431,29.308C288.847,29.308 286.643,30.245 284.819,32.12C283.045,33.944 282.159,36.477 282.159,39.72C282.159,42.963 283.045,45.547 284.819,47.472C286.643,49.347 288.847,50.284 291.431,50.284C294.015,50.284 296.193,49.347 297.967,47.472C299.791,45.597 300.703,43.039 300.703,39.796ZM336.097,25.66C337.617,23.329 339.517,21.505 341.797,20.188C344.077,18.82 346.61,18.136 349.397,18.136L349.397,31.892L345.825,31.892C342.582,31.892 340.15,32.601 338.529,34.02C336.907,35.388 336.097,37.82 336.097,41.316L336.097,61L323.101,61L323.101,18.592L336.097,18.592L336.097,25.66ZM398.928,18.592L372.328,81.14L358.344,81.14L368.072,59.556L350.82,18.592L365.336,18.592L375.14,45.116L384.868,18.592L398.928,18.592Z" style="fill-rule:nonzero;"/>
    <path d="M143.707,90.04L143.707,92.36L131.387,92.36L131.387,102.8L141.787,102.8L141.787,105.12L131.387,105.12L131.387,118L128.587,118L128.587,90.04L143.707,90.04ZM157.873,118.32C155.82,118.32 153.967,117.867 152.313,116.96C150.687,116.027 149.393,114.72 148.433,113.04C147.5,111.333 147.033,109.347 147.033,107.08C147.033,104.813 147.513,102.84 148.473,101.16C149.433,99.453 150.74,98.147 152.393,97.24C154.047,96.307 155.9,95.84 157.953,95.84C160.007,95.84 161.86,96.307 163.513,97.24C165.193,98.147 166.5,99.453 167.433,101.16C168.393,102.84 168.873,104.813 168.873,107.08C168.873,109.32 168.393,111.293 167.433,113C166.473,114.707 165.153,116.027 163.473,116.96C161.793,117.867 159.927,118.32 157.873,118.32ZM157.873,115.88C159.313,115.88 160.647,115.56 161.873,114.92C163.1,114.253 164.087,113.267 164.833,111.96C165.607,110.627 165.993,109 165.993,107.08C165.993,105.16 165.62,103.547 164.873,102.24C164.127,100.907 163.14,99.92 161.913,99.28C160.687,98.613 159.353,98.28 157.913,98.28C156.473,98.28 155.14,98.613 153.913,99.28C152.687,99.92 151.7,100.907 150.953,102.24C150.233,103.547 149.873,105.16 149.873,107.08C149.873,109 150.233,110.627 150.953,111.96C151.7,113.267 152.673,114.253 153.873,114.92C155.1,115.56 156.433,115.88 157.873,115.88ZM192.897,96.16L192.897,118L190.097,118L190.097,114.16C189.457,115.52 188.471,116.56 187.137,117.28C185.804,118 184.311,118.36 182.657,118.36C180.044,118.36 177.911,117.56 176.257,115.96C174.604,114.333 173.777,111.987 173.777,108.92L173.777,96.16L176.537,96.16L176.537,108.6C176.537,110.973 177.124,112.787 178.297,114.04C179.497,115.293 181.124,115.92 183.177,115.92C185.284,115.92 186.964,115.253 188.217,113.92C189.471,112.587 190.097,110.627 190.097,108.04L190.097,96.16L192.897,96.16ZM209.53,95.76C212.143,95.76 214.277,96.573 215.93,98.2C217.583,99.8 218.41,102.133 218.41,105.2L218.41,118L215.65,118L215.65,105.52C215.65,103.147 215.05,101.333 213.85,100.08C212.677,98.827 211.063,98.2 209.01,98.2C206.903,98.2 205.223,98.867 203.97,100.2C202.717,101.533 202.09,103.493 202.09,106.08L202.09,118L199.29,118L199.29,96.16L202.09,96.16L202.09,99.88C202.783,98.547 203.783,97.533 205.09,96.84C206.397,96.12 207.877,95.76 209.53,95.76ZM223.322,107.04C223.322,104.8 223.776,102.84 224.682,101.16C225.589,99.453 226.829,98.147 228.402,97.24C230.002,96.307 231.802,95.84 233.802,95.84C235.722,95.84 237.456,96.307 239.002,97.24C240.549,98.173 241.682,99.387 242.402,100.88L242.402,88.4L245.202,88.4L245.202,118L242.402,118L242.402,113.12C241.736,114.64 240.642,115.893 239.122,116.88C237.602,117.84 235.816,118.32 233.762,118.32C231.762,118.32 229.962,117.853 228.362,116.92C226.789,115.987 225.549,114.667 224.642,112.96C223.762,111.253 223.322,109.28 223.322,107.04ZM242.402,107.08C242.402,105.32 242.042,103.773 241.322,102.44C240.602,101.107 239.616,100.08 238.362,99.36C237.136,98.64 235.776,98.28 234.282,98.28C232.736,98.28 231.349,98.627 230.122,99.32C228.896,100.013 227.922,101.027 227.202,102.36C226.509,103.667 226.162,105.227 226.162,107.04C226.162,108.827 226.509,110.4 227.202,111.76C227.922,113.093 228.896,114.12 230.122,114.84C231.349,115.533 232.736,115.88 234.282,115.88C235.776,115.88 237.136,115.52 238.362,114.8C239.616,114.08 240.602,113.053 241.322,111.72C242.042,110.387 242.402,108.84 242.402,107.08ZM271.355,105.96C271.355,106.92 271.328,107.653 271.275,108.16L253.155,108.16C253.235,109.813 253.635,111.227 254.355,112.4C255.075,113.573 256.021,114.467 257.195,115.08C258.368,115.667 259.648,115.96 261.035,115.96C262.848,115.96 264.368,115.52 265.595,114.64C266.848,113.76 267.675,112.573 268.075,111.08L271.035,111.08C270.501,113.213 269.355,114.96 267.595,116.32C265.861,117.653 263.675,118.32 261.035,118.32C258.981,118.32 257.141,117.867 255.515,116.96C253.888,116.027 252.608,114.72 251.675,113.04C250.768,111.333 250.315,109.347 250.315,107.08C250.315,104.813 250.768,102.827 251.675,101.12C252.581,99.413 253.848,98.107 255.475,97.2C257.101,96.293 258.955,95.84 261.035,95.84C263.115,95.84 264.928,96.293 266.475,97.2C268.048,98.107 269.248,99.333 270.075,100.88C270.928,102.4 271.355,104.093 271.355,105.96ZM268.515,105.88C268.541,104.253 268.208,102.867 267.515,101.72C266.848,100.573 265.928,99.707 264.755,99.12C263.581,98.533 262.301,98.24 260.915,98.24C258.835,98.24 257.061,98.907 255.595,100.24C254.128,101.573 253.315,103.453 253.155,105.88L268.515,105.88ZM275.197,107.04C275.197,104.8 275.651,102.84 276.557,101.16C277.464,99.453 278.704,98.147 280.277,97.24C281.877,96.307 283.677,95.84 285.677,95.84C287.597,95.84 289.331,96.307 290.877,97.24C292.424,98.173 293.557,99.387 294.277,100.88L294.277,88.4L297.077,88.4L297.077,118L294.277,118L294.277,113.12C293.611,114.64 292.517,115.893 290.997,116.88C289.477,117.84 287.691,118.32 285.637,118.32C283.637,118.32 281.837,117.853 280.237,116.92C278.664,115.987 277.424,114.667 276.517,112.96C275.637,111.253 275.197,109.28 275.197,107.04ZM294.277,107.08C294.277,105.32 293.917,103.773 293.197,102.44C292.477,101.107 291.491,100.08 290.237,99.36C289.011,98.64 287.651,98.28 286.157,98.28C284.611,98.28 283.224,98.627 281.997,99.32C280.771,100.013 279.797,101.027 279.077,102.36C278.384,103.667 278.037,105.227 278.037,107.04C278.037,108.827 278.384,110.4 279.077,111.76C279.797,113.093 280.771,114.12 281.997,114.84C283.224,115.533 284.611,115.88 286.157,115.88C287.651,115.88 289.011,115.52 290.237,114.8C291.491,114.08 292.477,113.053 293.197,111.72C293.917,110.387 294.277,108.84 294.277,107.08ZM312.486,91.84L312.486,89.32L319.286,89.32L319.286,118L316.446,118L316.446,91.84L312.486,91.84ZM329.246,110.36C329.539,112.093 330.206,113.427 331.246,114.36C332.286,115.293 333.712,115.76 335.526,115.76C338.032,115.76 339.886,114.787 341.086,112.84C342.312,110.867 342.872,107.613 342.766,103.08C342.259,104.547 341.286,105.707 339.846,106.56C338.432,107.387 336.806,107.8 334.966,107.8C332.166,107.8 329.912,106.96 328.206,105.28C326.526,103.6 325.686,101.267 325.686,98.28C325.686,96.493 326.032,94.88 326.726,93.44C327.419,92 328.472,90.867 329.886,90.04C331.299,89.213 333.032,88.8 335.086,88.8C338.872,88.8 341.512,90.04 343.006,92.52C344.499,94.973 345.246,98.507 345.246,103.12C345.246,108.107 344.499,111.853 343.006,114.36C341.539,116.867 339.006,118.12 335.406,118.12C332.766,118.12 330.712,117.413 329.246,116C327.779,114.56 326.912,112.68 326.646,110.36L329.246,110.36ZM335.406,105.4C336.659,105.4 337.806,105.147 338.846,104.64C339.912,104.107 340.766,103.333 341.406,102.32C342.046,101.307 342.366,100.093 342.366,98.68C342.366,96.493 341.739,94.693 340.486,93.28C339.259,91.867 337.486,91.16 335.166,91.16C333.112,91.16 331.459,91.8 330.206,93.08C328.979,94.36 328.366,96.067 328.366,98.2C328.366,100.44 328.979,102.2 330.206,103.48C331.432,104.76 333.166,105.4 335.406,105.4ZM354.246,110.36C354.539,112.093 355.206,113.427 356.246,114.36C357.286,115.293 358.712,115.76 360.526,115.76C363.032,115.76 364.886,114.787 366.086,112.84C367.312,110.867 367.872,107.613 367.766,103.08C367.259,104.547 366.286,105.707 364.846,106.56C363.432,107.387 361.806,107.8 359.966,107.8C357.166,107.8 354.912,106.96 353.206,105.28C351.526,103.6 350.686,101.267 350.686,98.28C350.686,96.493 351.032,94.88 351.726,93.44C352.419,92 353.472,90.867 354.886,90.04C356.299,89.213 358.032,88.8 360.086,88.8C363.872,88.8 366.512,90.04 368.006,92.52C369.499,94.973 370.246,98.507 370.246,103.12C370.246,108.107 369.499,111.853 368.006,114.36C366.539,116.867 364.006,118.12 360.406,118.12C357.766,118.12 355.712,117.413 354.246,116C352.779,114.56 351.912,112.68 351.646,110.36L354.246,110.36ZM360.406,105.4C361.659,105.4 362.806,105.147 363.846,104.64C364.912,104.107 365.766,103.333 366.406,102.32C367.046,101.307 367.366,100.093 367.366,98.68C367.366,96.493 366.739,94.693 365.486,93.28C364.259,91.867 362.486,91.16 360.166,91.16C358.112,91.16 356.459,91.8 355.206,93.08C353.979,94.36 353.366,96.067 353.366,98.2C353.366,100.44 353.979,102.2 355.206,103.48C356.432,104.76 358.166,105.4 360.406,105.4ZM393.606,91.72L378.966,91.72L378.966,101.96C379.632,101.027 380.606,100.267 381.886,99.68C383.166,99.067 384.552,98.76 386.046,98.76C388.232,98.76 390.019,99.213 391.406,100.12C392.792,101 393.792,102.16 394.406,103.6C395.019,105.013 395.326,106.533 395.326,108.16C395.326,110.027 394.966,111.72 394.246,113.24C393.552,114.733 392.472,115.92 391.006,116.8C389.566,117.68 387.766,118.12 385.606,118.12C382.859,118.12 380.632,117.413 378.926,116C377.219,114.56 376.179,112.627 375.806,110.2L378.566,110.2C378.912,111.96 379.712,113.32 380.966,114.28C382.219,115.24 383.766,115.72 385.606,115.72C387.926,115.72 389.672,115.04 390.846,113.68C392.046,112.293 392.646,110.467 392.646,108.2C392.646,105.987 392.046,104.267 390.846,103.04C389.646,101.787 387.926,101.16 385.686,101.16C384.139,101.16 382.779,101.52 381.606,102.24C380.432,102.96 379.566,103.933 379.006,105.16L376.366,105.16L376.366,89.28L393.606,89.28L393.606,91.72Z" style="fill-rule:nonzero;"/>
    <path d="M2.482,49.477C2.471,49.547 2.455,49.621 2.432,49.691C2.455,49.621 2.471,49.547 2.482,49.477ZM2.498,49.391C2.498,49.52 2.514,49.961 2.67,50.563C2.99,51.77 3.822,52.863 4.955,53.555L49.373,80.59C49.299,80.152 49.268,79.703 49.268,79.242C49.268,74.891 51.151,71.887 55.572,69.191L97.854,43.441C98.412,43.102 98.471,42.539 98.471,42.313C98.471,42.086 98.412,41.523 97.854,41.184L52.943,13.832L7.561,41.469C3.873,43.715 2.506,45.824 2.506,49.246C2.506,49.293 2.502,49.344 2.498,49.391ZM55.08,86.273C54.151,86.273 53.252,86.023 52.42,85.516C52.252,85.41 52.092,85.305 51.936,85.18L3.709,55.824C1.99,54.785 0.772,53.16 0.268,51.266C0.022,50.316 -0.029,49.672 0.014,49.234C0.018,44.887 1.9,41.887 6.318,39.195L52.322,11.176C52.705,10.941 53.178,10.941 53.565,11.176L99.1,38.91C100.268,39.621 100.963,40.895 100.963,42.313C100.963,43.731 100.268,45.008 99.1,45.715L56.818,71.465C53.127,73.715 51.76,75.82 51.76,79.242C51.76,80.797 52.365,82.227 53.338,83.008C53.358,83.027 53.385,83.043 53.404,83.063C53.49,83.125 53.576,83.184 53.666,83.238C54.654,83.844 55.826,83.766 57.053,83.019L99.818,56.973L96.346,54.586C95.772,54.195 95.611,53.379 95.983,52.77C96.361,52.164 97.131,51.992 97.709,52.391L102.877,55.941C103.24,56.191 103.455,56.621 103.443,57.078C103.432,57.535 103.197,57.953 102.818,58.18L58.303,85.293C57.229,85.949 56.135,86.273 55.08,86.273Z" style="fill:rgb(214,152,66);fill-rule:nonzero;"/>
    <path d="M75.893,102.816C75.463,102.816 75.045,102.582 74.815,102.16C74.471,101.535 74.674,100.73 75.272,100.367L99.819,85.414L96.346,83.031C95.772,82.633 95.612,81.82 95.983,81.211C96.362,80.602 97.131,80.43 97.709,80.828L102.877,84.383C103.24,84.633 103.455,85.063 103.443,85.519C103.432,85.977 103.197,86.391 102.818,86.621L76.514,102.641C76.319,102.766 76.104,102.816 75.893,102.816Z" style="fill:rgb(214,152,66);fill-rule:nonzero;"/>
    <path d="M2.482,77.922C2.471,77.992 2.455,78.062 2.432,78.129C2.455,78.062 2.471,77.992 2.482,77.922ZM52.627,113.844C52.412,113.844 52.197,113.785 52.002,113.668L3.709,84.269C1.99,83.223 0.772,81.602 0.268,79.703C0.022,78.758 -0.029,78.117 0.014,77.676C0.018,73.336 1.893,70.336 6.287,67.652L8.381,66.219C8.959,65.824 9.732,65.996 10.108,66.602C10.479,67.215 10.318,68.027 9.74,68.422L7.619,69.875C7.6,69.887 7.58,69.898 7.561,69.91C3.873,72.156 2.506,74.266 2.506,77.687C2.506,77.734 2.502,77.781 2.498,77.832C2.498,77.957 2.514,78.406 2.67,79C2.99,80.215 3.822,81.305 4.955,81.992L53.252,111.391C53.846,111.754 54.049,112.559 53.701,113.184C53.475,113.609 53.053,113.844 52.627,113.844Z" style="fill:rgb(214,152,66);fill-rule:nonzero;"/>
    <path d="M67.389,118.145C67.178,118.145 66.963,118.086 66.775,117.973C66.385,117.742 66.143,117.305 66.143,116.832L66.143,109.016L58.295,113.738C56.287,114.961 54.197,115.039 52.42,113.957C50.478,112.77 49.268,110.367 49.268,107.688C49.268,103.328 51.15,100.324 55.572,97.633L97.854,71.879C98.412,71.543 98.471,70.981 98.471,70.754C98.471,70.523 98.412,69.965 97.854,69.625C97.26,69.262 97.057,68.457 97.4,67.828C97.74,67.203 98.506,66.988 99.1,67.348C100.268,68.059 100.963,69.332 100.963,70.754C100.963,72.172 100.268,73.445 99.1,74.156L56.818,99.91C53.127,102.152 51.76,104.262 51.76,107.688C51.76,109.406 52.506,110.977 53.666,111.684C54.654,112.285 55.826,112.211 57.053,111.461L66.772,105.617C67.158,105.383 67.631,105.387 68.014,105.621C68.397,105.855 68.635,106.293 68.635,106.758L68.635,114.516L74.647,110.715L74.647,101.504C74.647,99.684 73.713,97.988 72.213,97.086C71.611,96.723 71.408,95.922 71.748,95.293C72.088,94.66 72.85,94.445 73.443,94.805C75.721,96.172 77.139,98.742 77.139,101.504L77.139,111.461C77.139,111.926 76.908,112.352 76.529,112.586L68.029,117.957C67.83,118.082 67.607,118.145 67.389,118.145Z" style="fill:rgb(214,152,66);fill-rule:nonzero;"/>
    <path d="M45.166,64.016C44.963,64.016 44.756,63.961 44.565,63.848L6.338,41.481C5.736,41.129 5.518,40.328 5.854,39.695C6.182,39.059 6.939,38.828 7.545,39.18L45.768,61.551C46.373,61.902 46.592,62.703 46.256,63.34C46.029,63.77 45.603,64.016 45.166,64.016Z" style="fill:rgb(214,152,66);fill-rule:nonzero;"/>
</svg>
